<svg xmlns="http://www.w3.org/2000/svg" width="36.772" height="26.734" viewBox="0 0 36.772 26.734"><defs><style>.a{fill:#fff;}</style></defs><g transform="translate(-39.615 -2098.754)"><g transform="translate(39.617 2028.876)"><g transform="translate(-0.002 69.878)"><path class="a" d="M36.759,79.854a7.025,7.025,0,0,0-1.727-4.329,5.384,5.384,0,0,0,.584-.846,8.475,8.475,0,0,0,.887-4.8l-2.152.152a5.533,5.533,0,0,1-.964,4.1c-2.26-1.363-5.143-1.172-7.882.569a21.129,21.129,0,0,0-5.117,5.194c-.62.8-1.205,1.549-1.836,2.262-2.4,2.716-5.45,4.016-9.6,4.091a16.264,16.264,0,0,1-1.844-.142c-2.155-.24-4.836-.538-6.376,1.081-1.39,1.461-.617,3.644.765,5.159C3.619,94.673,6.505,95.4,9.28,95.955a33.169,33.169,0,0,0,6.447.658,27.993,27.993,0,0,0,2.973-.155,22.948,22.948,0,0,0,12.2-4.93C33.743,89.151,36.985,84.668,36.759,79.854ZM29.514,89.871a20.774,20.774,0,0,1-11.043,4.441A29.233,29.233,0,0,1,9.7,93.838c-2.523-.5-4.926-1.1-6.609-2.947-.6-.654-1.2-1.788-.8-2.218a3.088,3.088,0,0,1,2.206-.6,22.165,22.165,0,0,1,2.369.178,17.21,17.21,0,0,0,2.122.155c4.733-.086,8.39-1.663,11.179-4.82.674-.764,1.308-1.578,1.921-2.365.726-.934,1.433-1.84,2.191-2.657l3.145.587-.218,4.413,4.544-1.278L33.127,85.4l.063-.028A15.919,15.919,0,0,1,29.514,89.871Zm4.77-7.193L32.97,79.7l-3.458.973.163-3.3-3.353-.626q.168-.117.34-.227c.832-.528,3.73-2.106,6.088-.208A4.912,4.912,0,0,1,34.6,79.955,8.882,8.882,0,0,1,34.284,82.678Z" transform="translate(0.002 -69.878)"/></g></g></g></svg>