<svg xmlns="http://www.w3.org/2000/svg" width="42.701" height="42.699" viewBox="0 0 42.701 42.699"><g transform="translate(0 -0.011)"><g transform="translate(0 0.011)"><g transform="translate(0 0)"><path d="M41.567,14.664,28.046,1.143a3.885,3.885,0,0,0-5.482,0L1.132,22.575a3.885,3.885,0,0,0,0,5.482L2.8,29.724h0L14.006,40.931H12.454a.89.89,0,0,0,0,1.779H30.245a.89.89,0,0,0,0-1.779H20.782L41.567,20.146A3.881,3.881,0,0,0,41.567,14.664Zm-1.258,4.224L18.877,40.32a2.082,2.082,0,0,1-1.48.61H17.39a2.081,2.081,0,0,1-1.479-.61L4.687,29.1,25.269,8.513a.89.89,0,1,0-1.258-1.258L3.429,27.838,2.39,26.8a2.106,2.106,0,0,1,0-2.966L23.822,2.4a2.106,2.106,0,0,1,2.966,0L31.6,7.213,11.017,27.8a.89.89,0,1,0,1.258,1.258L32.858,8.471l7.451,7.451A2.1,2.1,0,0,1,40.309,18.888Z" transform="translate(0 -0.011)"/><path d="M169.177,305.2a.89.89,0,0,0-1.258,0l-7,7a.89.89,0,1,0,1.258,1.258l7-7A.89.89,0,0,0,169.177,305.2Z" transform="translate(-147.259 -279.509)"/><path d="M193.958,384.877l-2.871,2.871a.89.89,0,0,0,1.258,1.258l2.871-2.871a.89.89,0,1,0-1.258-1.258Z" transform="translate(-174.911 -352.54)"/><path d="M253.042,353.2l-.377.377a.89.89,0,1,0,1.258,1.258l.377-.377a.89.89,0,0,0-1.258-1.258Z" transform="translate(-231.354 -323.507)"/><path d="M348.9,160.93a.89.89,0,0,0-1.258,0l-3.774,3.774a.889.889,0,0,0,0,1.258l2.516,2.516a.89.89,0,0,0,1.258,0l3.774-3.774a.89.89,0,0,0,0-1.258Zm-1.887,5.661-1.258-1.258,2.516-2.516,1.258,1.258Z" transform="translate(-314.953 -147.27)"/><path d="M310.562,56.483a.886.886,0,0,0,.629-.261l.377-.378a.89.89,0,1,0-1.258-1.258l-.377.378a.89.89,0,0,0,.629,1.518Z" transform="translate(-283.846 -49.797)"/><path d="M100.2,355.193l-.377.377a.89.89,0,0,0,1.258,1.258l.377-.377a.89.89,0,1,0-1.258-1.258Z" transform="translate(-91.262 -325.332)"/></g></g></g></svg>