<svg xmlns="http://www.w3.org/2000/svg" width="34.444" height="34.25" viewBox="0 0 34.444 34.25"><defs><style>.a{fill:#fff;}</style></defs><g transform="translate(-41.777 -2095.438)"><g transform="translate(41.777 2094.938)"><path class="a" d="M77.994,19.81l2.024-.128h.011a4.765,4.765,0,0,0,3.552-2.073l1.6-2.347A9.471,9.471,0,0,0,86.7,8.311a2.137,2.137,0,0,0-2.005-1.777,9.469,9.469,0,0,0-6.717,2.341l-2.139,1.87a4.765,4.765,0,0,0-1.633,3.775s0,.007,0,.011l.115,2.024a2.849,2.849,0,0,1-.792,2.135L56.821,35.853a2.428,2.428,0,0,0-.65,1.8A2.791,2.791,0,0,0,59,40.368q.111,0,.222-.009a2.428,2.428,0,0,0,1.713-.864l15.033-18.64A2.85,2.85,0,0,1,77.994,19.81Zm-2.828.394L60.134,38.843a1.405,1.405,0,0,1-.994.486A1.763,1.763,0,0,1,57.2,37.613a1.4,1.4,0,0,1,.361-1.043L74.27,19.408A3.886,3.886,0,0,0,75.352,16.5l-.115-2.019a3.738,3.738,0,0,1,1.281-2.955l2.139-1.87a8.448,8.448,0,0,1,5.988-2.087,1.105,1.105,0,0,1,1.036.919,8.444,8.444,0,0,1-1.354,6.2l-1.6,2.347a3.738,3.738,0,0,1-2.78,1.626l-2.018.128A3.887,3.887,0,0,0,75.166,20.2Zm0,0" transform="translate(-52.39 -5.619)"/><path class="a" d="M303.691,297.238l-11.2-10.2a.516.516,0,1,0-.7.763l11.2,10.2a1.406,1.406,0,0,1,.426,1.022,1.764,1.764,0,0,1-1.83,1.83,1.4,1.4,0,0,1-1.019-.423l-9.982-10.959a.516.516,0,1,0-.763.7l9.985,10.962a2.428,2.428,0,0,0,1.76.757h.054A2.795,2.795,0,0,0,304.451,299,2.43,2.43,0,0,0,303.691,297.238Zm0,0" transform="translate(-270.201 -267.134)"/><path class="a" d="M6.231,14.094a4.781,4.781,0,0,0,3.126,1.264h.011l2.028.006a2.848,2.848,0,0,1,2.083.919l.893.98a.516.516,0,1,0,.763-.7l-.895-.982A3.885,3.885,0,0,0,11.4,14.332l-2.022-.006a3.752,3.752,0,0,1-2.423-.969L1.077,6.371A.178.178,0,0,1,1.34,6.13l5.349,5.349a1.357,1.357,0,0,0,1.918,0l.629-.628h0l1.116-1.116h0l.628-.628a1.358,1.358,0,0,0,0-1.918L5.631,1.839a.178.178,0,0,1,.241-.263l6.985,5.876a3.75,3.75,0,0,1,.97,2.423l.006,2.022a3.888,3.888,0,0,0,1.256,2.843l.957.872a.516.516,0,1,0,.7-.763l-.955-.87a2.85,2.85,0,0,1-.921-2.085L14.86,9.867s0-.007,0-.011A4.781,4.781,0,0,0,13.6,6.729a.516.516,0,0,0-.047-.045L6.537.786A1.211,1.211,0,0,0,4.9,2.569L10.25,7.918a.324.324,0,0,1,0,.458l-.264.263L4.025,2.677a.516.516,0,0,0-.73.73L9.256,9.369l-.386.386L2.909,3.794a.516.516,0,0,0-.73.73L8.14,10.485l-.263.264a.324.324,0,0,1-.458,0L2.07,5.4A1.211,1.211,0,0,0,.287,7.036l5.9,7.011A.48.48,0,0,0,6.231,14.094Zm0,0" transform="translate(0)"/></g></g></svg>