<svg xmlns="http://www.w3.org/2000/svg" width="42.258" height="56.652" viewBox="0 0 42.258 56.652"><defs><style>.a,.b{fill:#fff;}.b{font-size:14px;font-family:Lato-Bold, Lato;font-weight:700;letter-spacing:0.12em;}</style></defs><g transform="translate(-38 -2098.348)"><g transform="translate(1 1)"><g transform="translate(38.042 2037.623)"><g transform="translate(0 59.725)"><path class="a" d="M72.544,167.105a2.21,2.21,0,0,0,3.125,3.125,15.273,15.273,0,0,1,21.573,0,2.207,2.207,0,0,0,3.117-3.125A19.68,19.68,0,0,0,72.544,167.105Z" transform="translate(-65.843 -152.79)"/><path class="a" d="M143.344,264.772a2.21,2.21,0,0,0,3.125,3.125,6.813,6.813,0,0,1,9.637,0,2.2,2.2,0,1,0,3.117-3.117A11.228,11.228,0,0,0,143.344,264.772Z" transform="translate(-130.68 -244.492)"/><circle class="a" cx="2.94" cy="2.94" r="2.94" transform="translate(17.668 25.275)"/><path class="a" d="M40.572,67.976a28.278,28.278,0,0,0-39.928,0A2.21,2.21,0,0,0,3.77,71.1a23.839,23.839,0,0,1,33.686,0,2.207,2.207,0,1,0,3.117-3.125Z" transform="translate(0 -59.725)"/></g></g></g><text class="b" transform="translate(59 2152)"><tspan x="-20.923" y="0">Wi-Fi</tspan></text></g></svg>