<svg xmlns="http://www.w3.org/2000/svg" width="29.088" height="29.088" viewBox="0 0 29.088 29.088"><path d="M20,0H9.09A9.091,9.091,0,0,0,0,9.09V20a9.091,9.091,0,0,0,9.09,9.09H20A9.091,9.091,0,0,0,29.088,20V9.09A9.091,9.091,0,0,0,20,0Zm6.363,20A6.37,6.37,0,0,1,20,26.361H9.09A6.37,6.37,0,0,1,2.727,20V9.09A6.37,6.37,0,0,1,9.09,2.727H20A6.37,6.37,0,0,1,26.361,9.09Z"/><g transform="translate(7.272 7.272)"><path d="M135.272,128a7.272,7.272,0,1,0,7.272,7.272A7.272,7.272,0,0,0,135.272,128Zm0,11.817a4.545,4.545,0,1,1,4.545-4.545A4.551,4.551,0,0,1,135.272,139.817Z" transform="translate(-128 -128)"/></g><g transform="translate(21.392 5.758)"><circle cx="0.969" cy="0.969" r="0.969"/></g></svg>